<svg version="1" xmlns="http://www.w3.org/2000/svg" width="346.667" height="346.667" viewBox="0 0 260.000000 260.000000"><path d="M0 13c0 7.1.2 13 .6 13 .3 0 1-1.4 1.5-3 .6-1.7 1.7-3 2.5-3S6 19.3 6 18.5s.4-1.5.9-1.5c.4 0 2-1.1 3.5-2.5s3.4-2.5 4.2-2.5c.7 0 1.4-.4 1.4-.9 0-1.3 5.3-2.1 6.7-1 .7.6 1.2.6 1.5-.2.4-1.3 13.8-.2 13.8 1.2 0 .5.9.9 2 .9s2 .5 2 1.1c0 .6.6.9 1.4.6 1.7-.7 3.6 1.2 3.6 3.6 0 1 .3 1.6.8 1.3 1.1-.7 3.6 1.6 5 4.8 1 2.3 1.5 2.6 2.8 1.6 1.2-1.1 1.7-1 2.9.6.8 1 1.5 2.3 1.5 2.8 0 .4.7.6 1.5.2.9-.3 1.5 0 1.5.8s.7 1.7 1.6 2c1.1.4 1.5 1.4 1.1 3.2-.3 2 .1 2.8 2 3.7 1.3.6 3.3 3.1 4.6 5.9 1.8 4.1 2.5 4.8 4.2 4.2 3.2-1 7.2-.6 9.7 1 2.5 1.6 5.6.7 4.4-1.3-.9-1.4 0-1.4 2.5-.1 1.5.9 1.9.7 1.9-.5 0-1.4.5-1.4 3.4.4 4 2.5 6.8 2.8 6 .6-.5-1.1-.2-1.4 1.2-.9 1.1.4 2.4 1.1 3 1.6 1.6 1.2 10.5 2.6 20.8 3.3 4.9.3 9.6 1 10.5 1.4 2.6 1.4 7.5 1 9.4-.7 4.2-3.7 25.8-.6 24.2 3.5-.8 2.3 3.3 1.4 7.7-1.6 2.4-1.6 5.6-3.3 7.1-3.6 1.5-.4 3.4-1.7 4.2-2.8.8-1.2 1.5-1.7 1.5-1.2s.5.4 1.2-.3 1.8-1.2 2.5-1.2 3.8-2 6.8-4.4c6.7-5.5 12.7-8.5 13.3-6.8.3.9.8 1 1.7.2 1.9-1.6 16.8.8 16.1 2.6-.4 1.1.1 1.3 1.7.9 1.6-.4 3.1.3 5.5 2.6 1.7 1.7 3.2 3.5 3.2 4s.7.9 1.5.9c1.8 0 1.9 1.2.3 2.8-.9.9-.8 1.2.6 1.2.9 0 1.4.5 1.1 1-.3.6.1 1.3.9 1.6 1.2.5 1.4 1.5 1 4.6-.5 2.8-.3 4.2.6 4.8 1.1.7 1.1 1.1.1 2.4-1.1 1.3-1.1 1.6 0 1.6 2.7 0 3.9 3.5 2.3 6.6-1.7 3.1-1.2 5.4 1.1 5.4 2.5 0 1.7 1.7-1.2 2.5-2.6.6-2.7.8-1 2 1.5 1.1 1.5 1.3.2 1.8-.8.4-1.2 1.2-1 1.9.6 1.6-3 7.8-4.5 7.8-.6 0-.8.5-.5 1 .4.6.2 1.6-.3 2.3-.6.7-1.1 1.6-1.1 2.2-.1 1.5-5 1.8-6.7.4-2.2-1.8-1.7-4.5 1.1-5.7 2.6-1.2 3.4-4.7 1.4-5.4-.9-.3-.9-.9-.1-2.5.9-1.5.8-2.5-.3-3.9-.8-1.1-1-2.3-.5-2.9 1.1-1.4.1-5.5-1.3-5.5-.6 0-.2-.7.9-1.5 1-.8 1.4-1.5.7-1.5-.6 0-.9-.8-.6-1.8.2-1-.3-2.4-1.1-3.2-1.2-1-1.4-1.6-.5-2.6.9-1.1.7-1.4-1-1.4-1.1 0-2.1-.4-2.1-.8 0-.5-1-1.3-2.2-1.9l-2.3-1 2.3-1.2c3.6-1.9 2.5-3.1-2.8-3.1-2.7 0-5-.4-5-.9 0-.4-1.1-.6-2.5-.3-1.4.2-2.5.8-2.5 1.2 0 1-9 8-10.3 8-1.7 0 1.6-3.1 5.5-5.1 4.6-2.3 4.7-2.9.8-2.9-1.8 0-4.2 1.1-6.3 3-4.1 3.6-8.2 4.1-7.4 1 .7-2.6-.9-2.5-4.2.2-1.5 1.3-3.9 3.1-5.3 4.2l-2.5 1.8 2.4 2.4c1.3 1.3 2.9 2.4 3.5 2.4 2.8 0 7.7 2.5 8.1 4.2.3 1 1.2 1.8 2 1.8s1.7 1.3 2 3c.5 2.2 1 2.8 2.3 2.3 1.3-.5 1.5-.2 1 1.5-.5 1.4-.1 2.7 1.3 4.1 1.2 1.2 2.1 2.5 2.1 3s.9 1.1 2 1.4c1.5.4 2 1.4 2 3.6 0 2.1.5 3.1 1.6 3.1.8 0 2.1 1.5 2.9 3.2.7 1.8 2.3 4.5 3.5 6 1.8 2.3 1.9 2.8.6 2.8-1.9 0-2.2 1.9-.3 2.1 4.9.5 8.7-2.4 8.7-6.6 0-1.3.7-2.5 1.5-2.9.8-.3 1.5-.1 1.5.3 0 .5 1.2 1.4 2.8 1.9l2.7 1-2.8 1.1c-2 .8-2.7 1.7-2.7 3.7 0 2.2-.4 2.5-2.1 2.1-1.4-.4-1.8-.2-1.1.6.5.7 1.2 2.5 1.6 4 .6 2.6.5 2.8-1.6 2.1-5.1-1.6-5.3-1.6-3.4 0 3.3 2.7 2.5 6.4-1.6 7.9-.8.2 1.6 3.3 5.9 7.8 9.4 9.5 11.5 14.6 3.9 9.4-2.1-1.4-4.1-2.3-4.6-2-1.1.7-2.1-2.1-1.4-4 .4-.8.1-1.5-.6-1.5-.6 0-1.9-.8-2.8-1.8-1.8-2-7.2-4.6-7.2-3.5 0 .4 1.7 2.4 3.7 4.5 3.9 4 3 4.9-2.2 2.2l-3-1.5 2.3 2.4c1.2 1.3 2.2 2.8 2.2 3.3 0 1.5 4.4 5.4 5.9 5.4.8 0 1.1-.6.7-1.5-.7-2-.5-1.9 3 .7 3.3 2.4 3.4 4.8.4 4.8-1.1 0-2.3.7-2.8 1.6-.8 1.4-1.3 1.2-3.3-1.5-2.5-3.4-5.3-4.2-4.7-1.4.2 1 1.6 2.4 3.1 3.1 1.9.9 2.7 1.9 2.2 2.9-.3.9.3 2.6 1.5 3.8 1.9 2 1.9 2.3.5 2.9-1.4.5-1.2 1.2 1.2 5.3 1.8 3.2 2.3 4.8 1.5 5.1-1.4.4-.6 2.2.9 2.2.6 0 .7-.4.4-1-.3-.5-.2-1 .3-1 .6 0 1.9 1.6 3.1 3.5 1.1 1.9 2.5 3.5 3.1 3.5.5 0 1 .7 1 1.6 0 1.4-.5 1.3-3.6-.5-5.4-3.2-5.6-1.5-.4 3.1 4.2 3.7 4.3 3.9 1.2 2.3-3.6-1.7-5.8-1.2-3.2.8 2.4 1.9 8 8.7 8 9.7 0 .6-.7 1-1.5 1-1.8 0-2 2.1-.4 3.7.9.9.4 1.2-2 1.1-1.7-.1-3.1-.5-3.1-1s-.5-.6-1-.3c-.6.4-1.9.1-2.8-.6-1.4-1.1-1.5-1.1-.4.1.6.8 1.2 2 1.2 2.8 0 1.2-.3 1.2-1.6.1-1.5-1.3-8.4-11.4-8.4-12.4 0-.3 1.1-.5 2.5-.5 2.2 0 2.4-.3 1.5-2.5-.5-1.4-.7-2.5-.5-2.5.3 0-.5-1.8-1.6-4-1.5-2.9-2-5.1-1.6-7.5.3-1.9.1-3.7-.5-4.1-.5-.3-.8-1.4-.5-2.5.4-1.3-.2-1.9-2.5-2.4-3.8-.9-4.3-.2-2.8 3.5 1 2.4 1 3.6 0 5.9-.6 1.7-.9 3.5-.5 4.1.6.9-.1 1-2.4.5-3.2-.7-3.2-.7-2.6 2.7.7 3.9-1 6-4.9 6-2.2 0-2.4.3-1.5 2.5 1 2.8-1.7 8.1-3.4 6.4-.5-.5-1.6-.7-2.3-.4-.8.3-1.4 0-1.4-.7 0-.6.4-.9.9-.6 1.1.7 2.2-4.8 1.5-7.1-.5-1.5-.4-1.5.5-.3 1.7 2.4 2.6.1 1.2-3.3-.7-1.8-1.6-4.3-1.9-5.7-.5-2.2-.3-2.3 1-1.2 1.4 1.1 1.8.9 3.1-1.7 1.5-3 1.5-7.4.2-16.4-.8-5.1-1.8-6-3-2.5-.6 1.8-1 1.1-1.5-3.2-.4-3-.7-5.1-.8-4.6-.1.5-.9.3-1.7-.4-1.3-1.1-1.4-.8-.9 1.8.4 1.7.1 3.2-.5 3.6-.6.4-1.1 0-1.1-.8 0-.9-.4-1.6-1-1.6-.5 0-1 1-1 2.2 0 1.3-.9 3.4-1.9 4.8-1.5 1.9-1.7 2.6-.6 3.5.7.5 1.5 2.2 1.9 3.7.5 2.2.3 2.6-.9 2.2-.8-.4-1.5-1.1-1.5-1.6 0-.6-.6-.5-1.5.2-.8.7-1.5 1.9-1.5 2.7 0 .8-.5 1.1-1.1.8-.6-.4-1.3.3-1.6 1.6-.6 2.2-.7 2.2-1.4.3-1.7-4.3-1-9.3 1.7-11.7 3.5-2.9 6.3-8.6 7.4-15 .6-2.9 2.1-7.4 3.5-10.1 1.4-2.7 2.5-6.5 2.5-8.3 0-2.1.6-3.6 1.5-3.9 2.1-.8 1.9-7.9-.3-12.3-2.3-4.5-6.2-7.3-11.4-8.1-7.2-.9-18.5 2.1-24.9 6.7-2.6 1.8-4.9 3.3-5.3 3.3-1.4 0-.5-3.1 1.5-5.1 2.7-2.7 2-3.3-1.8-1.4-2.6 1.3-3.1 2.2-3.6 6.3-.5 4.3.4 8.3 3.8 16.4.4 1.1.3 1.8-.4 1.8-1.1 0-2.2-1.1-4.6-4.5-.7-1.1-1.7-1.6-2.1-1.2-.5.4-.2 1.2.6 1.7 1.2.8 1 1.4-1.5 3.4-1.6 1.3-3.3 2.2-3.8 1.9-.4-.2-1.7-.1-2.8.2-1.5.5-1.8 1-1 1.8 1.9 1.9 1.2 3.7-1.5 3.7-1.4 0-2.3-.4-1.9-1 1.2-1.9-1.2-1-3.3 1.3-3 3.2-2.8 3.7 1.4 3.7 2.1 0 3.3.4 2.9 1-.4.6-1.1.8-1.6.4-.5-.3-1.6 0-2.4.6-.8.7-2.6.9-3.9.6-1.4-.3-2.8-.2-3.1.4-.3.5-.2 1 .4 1 .6 0 .8 1.6.5 3.8-.9 6.2-.8 6.1-5.8 4.5-2.7-.9-4.3-2-3.9-2.6.4-.6 0-.8-1-.4-2.2.8-2.2-.9.1-2.3 1.5-1 1.5-1.1 0-.6-.9.3-1.8 0-2-.6-.2-.6-3.1.2-7 2.2-7.3 3.4-9.9 3.6-10.4.5-1.1-6.4-1.2-9-.5-10.4.5-.9.5-2.4.2-3.5-.6-1.6-1-1.4-3.4 1.7-1.5 2-2.7 4.4-2.7 5.4-.1 1-.7 2.9-1.5 4.3l-1.4 2.5-.2-2.5c-.1-1.4-.1-3.7 0-5.3.1-1.5-.1-2.7-.5-2.7-1.3 0-3.3 3.5-3.4 5.9 0 1.9-.3 2.2-1.1 1.4-.7-.7-1-3.5-.7-7.2.2-3.4.3-6.1.1-6.1-.1 0-.9 1.2-1.7 2.7l-1.5 2.8-.1-4-.1-4-1.9 2.4c-1.1 1.3-2 3.4-2 4.7 0 1.3-.5 2.4-1.1 2.4-.8 0-1-1.3-.6-3.7.6-3.6.5-3.7-.9-1.8-.9 1.1-2 1.9-2.6 1.7-.6-.2-.8.4-.4 1.5.4.9.4 1.4 0 1-.5-.4-1.4.3-2.1 1.5l-1.4 2.3.7-2.4c.4-1.4.1-2.6-.6-3.1-.9-.6-.5-1.8 1.4-4.6 3-4.4 3.2-5.4 1.1-5.4-2.2 0-5.7 4.2-5.1 6.3.2 1.1-.4 2.6-1.5 3.5-1 .9-1.9 2.3-1.9 3.2 0 .8-.5 2.2-1 3-.7 1-.9-.1-.4-3.8.5-3.7.3-5.2-.5-5.2-.7 0-.9-.5-.4-1.3 1-1.6 1.1-5.7.1-5.7-1.2 0-4.1 12.6-4 17.2 0 1.6-.4 2.8-.9 2.8-.9 0-.7-4.2.7-14 .3-1.9 1.1-4.9 1.8-6.5 1.8-3.9 3.5-9.5 3-9.5-.2 0-1.3 1.8-2.4 3.9-1 2.2-2.5 4.1-3.2 4.3-.7.3-1.3 2.6-1.4 5.6-.2 2.8-1 6.2-1.8 7.4-.9 1.2-1.6 3-1.6 4 0 .9-.5 2-1.1 2.4-.9.5-1-.1-.4-2.2.4-1.6.9-4.3 1-5.9.1-1.7.7-4 1.3-5.1 2.3-4.3 4-10.5 2.9-10.1-1.9.6-5 7.9-5.2 12.2-.3 4.7-2 9.5-3.5 9.5-1.4 0-5.9 5.1-6 6.8 0 .7-.9 3.2-2 5.4-1.1 2.3-2 4.8-2 5.5 0 2.3-1.5 1.4-1.6-1 0-1.2-.4-3-.8-3.9-.5-1.1 0-2.4 1.3-3.7 2.9-2.9 2.6-3.7-.5-1.6l-2.6 1.7.4-3.5c.3-3 0-3.7-1.8-4.1l-2.2-.6 2.1-6.6c1.9-5.6 2.6-6.6 5-7.1 1.5-.3 2.7-.8 2.8-1.2.6-6.2.6-7.7-.2-8.2-.6-.3-.3-2.2.6-4.3 1.9-4.6 1.6-5.3-1.3-2.6-1.2 1.1-3.2 2-4.5 2-1.2 0-2.7.3-3.3.8-.5.4.2-.4 1.6-1.7 2.6-2.5 9-12 9-13.3 0-1.4-1.4-.8-4.2 1.9-1.8 1.7-2.8 2.2-2.7 1.2.1-1.9 2.6-5.8 7.7-11.8 3.5-4 4-5.1 2.5-5.1-1 0-3.3.9-5.1 2-1.7 1.1-3.2 1.6-3.2 1.2 0-1.3-12.7-.7-14.4.7-.8.7-2 1-2.6.6-.6-.3-2.3-.8-3.8-1-2.6-.4-2.6-.4-.5.7 2.8 1.4 2.8 5.4-.1 8.7l-2.1 2.3 2.3-.6c2.6-.9 2.7-.3.5 3.4-1.4 2.4-1.5 3.3-.5 5.6 1.2 2.4 1.6 2.6 5.3 2 2.6-.4 3.8-.3 3.4.3-.3.6-2.2 1.3-4.3 1.6-5.5 1-7.2 1.5-7.2 2.5 0 .4 1 .6 2.2.2 1.4-.3 1.9-.2 1.4.6-.4.7-1.2 1.2-1.9 1.2-.6 0-2.4 1.2-3.9 2.7-2.1 2-2.8 2.3-2.8 1.1 0-.9.6-1.8 1.2-2.1.7-.2 1-.7.7-1.1-1.3-1.4-3.8.7-4.9 4-1 2.8-.9 3.7.4 5 1.5 1.4 1.9 1.3 4.6-1.6 1.7-1.8 3.3-3 3.6-2.7.3.3-.4 1.6-1.6 2.9-4.4 4.6-6.1 7.6-4.8 8.2.9.3.8.8-.5 1.6-.9.6-2.6 2.9-3.7 5.1-2.4 4.7-3.2 5-2.5.9.6-3.1-.8-4.2-1.9-1.4-.3.9-.6 9.7-.6 19.7.1 17 .2 18 1.6 15.4.9-1.6 1.8-2.6 2.1-2.4.6.7-1.6 7.8-2.8 9.1-.5.6-.9 17.6-.9 37.8V260h108c100.3 0 107.9-.1 107.3-1.7-.5-1.2-.2-1.5 1-1 1.4.5 1.7-.1 1.8-4.1l.2-4.7.9 5.7c1 5.7 1.1 5.8 4.3 5.8 3.1 0 3.3-.2 3-3.2-.1-1.8.2-4 .8-4.9.8-1.3.8-2.5-.1-4.4-2.5-5.4-1.3-6 3.1-1.5l4.2 4.5.3-2.8c.2-1.5.7-2.7 1.2-2.7s.4-1.4-.2-3.2c-.9-2.6-.8-3.3.7-4.5 1.5-1 1.6-1.6.7-2.5-1.6-1.6-1.5-3.1.1-2.3.6.4.4 0-.5-.8-1.7-1.4-2.5-5.7-1.1-5.7.4 0 1.7 1 3 2.2 1.4 1.3 2.3 1.6 2.3.9 0-2.4-4.3-7.3-7.4-8.6-1.7-.7-3.9-2.7-4.9-4.4-1.7-2.8-1.7-3.1-.1-3.1 1 0 1.4-.5 1-1.5-.4-1.3-.2-1.4 1.4-.5 2.1 1.1 2.4.8 2.1-2.2-.1-1 .2-2.6.8-3.5.6-1 1.1-1.2 1.1-.6 0 .7.6 1.3 1.3 1.3 1.4 0 7.7 7.3 7.7 8.9 0 .6-.8 1.1-1.8 1.1-3.2 0-3.2 1.2-.2 4 1.8 1.7 3 3.8 3 5.3 0 1.4.3 3.3.7 4.3.5 1.4.3 1.6-1.2 1.1-1.5-.6-1.6-.5-.5.8.7.8.9 1.5.5 1.5-.5 0-.1.8.8 1.8 1 1 1.4 2.1 1.1 2.5-.3.3.4 1 1.5 1.7 2.4 1.2 2.8 3 .7 3-.8 0-1.8.5-2.2 1.2-.7 1.1 1 .9 4.9-.7 3.4-1.4 1.7 2.1-1.9 3.9l-3.6 1.7 2.7 2.3 2.8 2.4-2.3 1.2-2.2 1.2 2.3 2.4c2.2 2.3 4.6 3.4 3.5 1.5-.7-1.1 1.7-2.1 5-2.1 1.5 0 2.4-.6 2.4-1.5 0-1.9-.4-1.9-3.9-.1-1.7.9-3.3 1.1-4.1.6-1.8-1.1-1.4-1.4 3.5-2.6l4-.9.3-126.3L260 0H0v13zm41 82c0 .5-.9 1.4-1.9 1.9-1.6.9-1.8.8-1.4-.9.5-2 3.3-2.9 3.3-1zm-9 1c-2 1.3-3.3 1.3-2.5 0 .3-.6 1.4-1 2.3-1 1.5 0 1.5.2.2 1zm7 23.4c0 .2-.8 1-1.7 1.7-1.6 1.3-1.7 1.2-.4-.4 1.3-1.6 2.1-2.1 2.1-1.3zm134.4 2.7c1.4.7 2.3 1.6 2 2.1-.3.5-1.1.4-1.9-.2-.7-.6-1.7-1-2.1-.9-2.1.3-3.5-.2-2.9-1.1.8-1.3 1.8-1.3 4.9.1zM21 130.9c0 1.2-.8 1.7-4.5 2.5l-3 .7 3-2c3.4-2.2 4.5-2.5 4.5-1.2zm4.9 3.2l-2.2 3.2 2.8-1.9 2.8-1.8-1.2 2.3c-1.2 2.2-6.9 5.3-8.3 4.5-.8-.5-5.7 5.9-8.2 10.8-1.1 2.1-2.3 3.8-2.8 3.8-1.6 0 .6-5.5 3.4-8.5 1.6-1.6 3.6-4.2 4.4-5.7.8-1.5 2.7-3.4 4.2-4.2 1.5-.8 3.6-2.3 4.6-3.5 2.8-3.1 3.1-2.6.5 1zm2.1 5.8c0 1.2-2 2.5-2.7 1.8-.7-.7.6-2.7 1.8-2.7.5 0 .9.4.9.9zm57.1 4.4c-1 .9-1.1.8-.5-.6.3-1 .9-1.5 1.2-1.2.3.3 0 1.1-.7 1.8zM8 148.5c-.7.9-1.5 1.3-1.7 1.1-.7-.7.7-2.6 1.9-2.6.6 0 .6.6-.2 1.5zm44.9 3.1c-1.3 3.4-2.4 1.6-1.4-2.3.4-1.7 1-2.2 1.6-1.6.6.6.6 2-.2 3.9zm33.8-.4c-.3.7-.5.2-.5-1.2s.2-1.9.5-1.3c.2.7.2 1.9 0 2.5zm5.3 1.3c.4 3.4 0 4.6-1 4-.5-.3-1-2.3-1-4.3 0-3.7 1.6-3.5 2 .3zm-44.4.1c-.4.9-.9 1.5-1.1 1.2-.3-.3-.3-1.3.1-2.2.4-.9.9-1.5 1.1-1.2.3.3.3 1.3-.1 2.2zm12.1 3.1c-.3 1-.5.4-.5-1.2 0-1.7.2-2.4.5-1.8.2.7.2 2.1 0 3zm-5.3 10.4c-.4 3-.9 4.8-1.1 4.1-.7-2-2.6-1.3-2 .8.3 1.1.1 2.3-.4 2.6-.5.3-.9-.6-.9-2s.4-2.8 1-3.1c.5-.3 1.4-2.4 2-4.6 1.5-5.6 2.3-4.3 1.4 2.2zm-12.3-2.8c-1 .9-1.1.8-.5-.6.3-1 .9-1.5 1.2-1.2.3.3 0 1.1-.7 1.8zm.9 10.4c0 1-3.2 4.3-4.2 4.3-.5 0-.1-1.1.8-2.5 1.5-2.3 3.4-3.3 3.4-1.8zm59.1 5.6c-.8.8-1.1.7-1.1-.4 0-2 1.3-3.4 1.8-1.9.3.7-.1 1.7-.7 2.3zm-48.5 3.3c-.4.9-.9 1.5-1.1 1.2-.3-.3-.3-1.3.1-2.2.4-.9.9-1.5 1.1-1.2.3.3.3 1.3-.1 2.2zM199 192.8c0 .7-.4 1-1 .7-.5-.3-1-1.6-1-2.8 0-1.8.2-1.9 1-.7.5.8 1 2.1 1 2.8zm-17.6-1.2c.4 1 .1 1.4-.6 1.2-1.5-.5-2.3-2.8-1-2.8.5 0 1.3.7 1.6 1.6zm20.6 5.5c0 .6-.4.7-1 .4-.5-.3-1-1.1-1-1.6 0-.6.5-.7 1-.4.6.3 1 1.1 1 1.6zm-77 2c-.7 1.1-1.4 1.8-1.7 1.5-.8-.8.5-3.6 1.7-3.6.7 0 .7.6 0 2.1zm69.7 2.1c-.3.8-.6.5-.6-.6-.1-1.1.2-1.7.5-1.3.3.3.4 1.2.1 1.9zm8.6-.2c.3 1.1.1 2-.4 2s-.9-.9-.9-2 .2-2 .4-2 .6.9.9 2zm-61.6 3.4c-.1 3.1-.6 4.2-1.5 3.8-.8-.3-1-1.1-.6-2.1.3-.9.9-2.6 1.1-3.9.8-3.4 1.2-2.6 1 2.2zm-19.7.2c0 .8-.5 1.2-1 .9-.6-.4-.8-1.1-.5-1.6.9-1.4 1.5-1.1 1.5.7zm2.1 7.7c-1 .9-1.1.8-.5-.6.3-1 .9-1.5 1.2-1.2.3.3 0 1.1-.7 1.8zm19.2 6.2c-.2 2.2-.7 5.6-1 7.5-.6 3.2-.7 3.1-1.4-2.5-.9-6.8.9-16.1 2.2-11.4.4 1.3.5 4.2.2 6.4zm-22.7 1.2l-1.6 2.8.6-3c.8-3.8 1.7-5.2 2.1-3.8.3.7-.3 2.4-1.1 4zm17.7 11.5c-.6 4.2-1.9 4.9-3.2 1.6-.7-1.9-.9-1.7-2.4 2s-1.5 4.5-.2 7.6c.9 2 1.1 3.6.6 3.6-1.9 0-3.5-3.3-3.7-8.1-.2-2.7-.8-5.8-1.4-7-.7-1.1-.8-2.8-.5-3.7.6-1.5.8-1.4 1.6.5 1 2.8 3.9 2 4-1.1 0-1.1.3-1.5.6-.8.7 1.8 2.3.4 2.4-2.1.1-1.9.2-1.8 1.3.8.7 1.6 1.1 4.7.9 6.7zm-37.2-5.9c-1 .9-1.1.8-.5-.6.3-1 .9-1.5 1.2-1.2.3.3 0 1.1-.7 1.8zM89 226.5c0 1.4-.4 2.5-1 2.5-.5 0-1-1.1-1-2.5s.5-2.5 1-2.5c.6 0 1 1.1 1 2.5zm-4.7 3.5c-.3 1.1-.2 2.7.1 3.6.6 1.5.8 1.5 2.4.1 1-.9 2.3-1.3 3-.8.9.5.1 1.8-2.8 4.3-2.4 2.2-4.2 3.2-4.6 2.6-.4-.6-1.2-.1-2 1.3-2.1 3.7-1.7-.1.5-5.2 1-2.4 2.1-5.2 2.4-6.2.9-2.4 1.6-2.2 1 .3zm140.7 1.1c0 .6-.4.7-1 .4-.5-.3-1-1.1-1-1.6 0-.6.5-.7 1-.4.6.3 1 1.1 1 1.6zM8.8 232c-1.4 2.2-2.4 1.9-1.5-.5.4-.8 1.1-1.5 1.7-1.5.6 0 .6.7-.2 2zm66.2 2.9c-.6 1.2-1.5 2.1-2 2.1-.6 0-1 .5-1 1.1 0 .6.7.9 1.5.5 2-.7 1.9 1.8-.1 3.8-2.2 2.2-2.5 2-1.8-1 .6-2.2.4-2.5-.7-1.8-1.1.6-1 .2.2-1.6.9-1.4 2.2-3.6 2.9-5 .7-1.4 1.5-2 1.7-1.3.3.7-.1 2.1-.7 3.2zm86 5.2c0 .6-.4.7-1 .4-.5-.3-1-1.1-1-1.6 0-.6.5-.7 1-.4.6.3 1 1.1 1 1.6zm-4.4 6.6c-.7 1.7-.8 1.7-1.7 0-1.2-2.1-.2-4.4 1.3-2.9.6.6.8 1.9.4 2.9zm-30.6 4.4c0 1.6-.2 2.9-.5 2.9-.8 0-2.8-5.2-3.1-8l-.3-2.5 2 2.4c1 1.3 1.9 3.6 1.9 5.2zM2.6 248.2c-.9 1.2-1.6 1.9-1.6 1.5 0-1.1 2.4-4.7 2.8-4.2.2.2-.3 1.4-1.2 2.7zm25.8 7.3c-.4.8-1.1 1.5-1.6 1.5-.6 0-.5-.6.2-1.5.7-.8 1.4-1.5 1.6-1.5.2 0 .1.7-.2 1.5zm155.3 2.7c-.3.8-.6.5-.6-.6-.1-1.1.2-1.7.5-1.3.3.3.4 1.2.1 1.9z"/><path d="M19.2 28.5c-2.1 2.4-3.3 2.9-5.9 2.6-1.5-.2-1.7 2.5-.3 3.4 1.4.9-2.1 4.5-4.5 4.5-1.9.1-1.9.1-.2 1.4 2.1 1.6 2.3 4 .2 3.2-1.7-.6-2.1 1.9-.4 3 .8.4.7.9-.2 1.5-1 .6-.9 1 .6 1.6 1.1.4 2 1.8 2.1 3 .1 3-1 2.9-2.4-.2-.6-1.4-1.8-2.5-2.7-2.5-1.9 0-1.9 1 .2 4 1.3 1.8 1.4 2.5.4 2.8-.9.3-.6 1.1 1 2.8 2.8 3 1.1 3.2-2 .3-1.4-1.4-2.6-1.8-3.2-1.2-.6.6-.4 1.4.6 2.3 2 1.7 1.9 3.1-.2 2.3-1.6-.6-1.6-.5 0 1.7 2 2.9 2.2 5.7.5 6.3-1 .3-.8 1 .6 2.5 1 1.2 1.6 2.8 1.3 3.6-.3.8-.3 1.7.1 2.1.4.4.8 1 .8 1.3C6.3 84 7.5 86 8.7 86c1 0 1.3.6.9 1.6-.7 1.9 2.4 7.6 3.9 7.1.5-.2 1-.9 1-1.6 0-.7.8-1.8 1.8-2.5.9-.7 1.7-2 1.7-2.7 0-.8.9-2 2-2.7 1.2-.7 1.9-1.6 1.6-2-.9-1.5 6-5 11.1-5.5 4.3-.5 5.1-.3 4.6.9-.3.9.2 1.4 1.7 1.4 1.1 0 1.8-.5 1.5-1-.3-.6.3-1 1.4-1 1.2 0 2.1-.5 2.1-1 0-.6-.9-1-2-1s-2-.5-2-1c0-.6 1.7-1 3.8-1 4.1-.1 8.2-2.4 6-3.4-.7-.3-.3-.3.9-.1 2.2.6 4.6-1.6 2.5-2.3-.6-.2-2.2-1.2-3.4-2.3L47.5 64l2.8 1c3.5 1.2 4 1.2 3.2.1-.8-1.4 1.6-2.6 4.9-2.2 2.3.2 2.8-.1 2.3-1.3-.3-.8-.2-1.8.4-2.1.5-.4.7-1.1.4-1.6-.4-.5-.1-.9.6-.9s.9-.9.6-2.2c-.4-1.2-.3-2.7.2-3.2 2-2.7 1.9-5.6-.2-6.8-1.2-.6-2.4-1.4-2.7-1.7-.3-.3-1.8-1.3-3.4-2.1-1.6-.8-4.4-3.9-6.3-6.8-1.8-2.8-4-5.2-4.8-5.2-2.4 0-1.7 2.6 1 4.4 2.9 1.9 3.3 4.6.8 4.6-2 0-7.3-4.8-7.3-6.6 0-1.8-5-4.7-8.7-5-2.4-.2-3.7.2-4.5 1.6-1.2 1.9-1.3 1.9-3.3 0-2.1-2-2.1-2-4.3.5zm26.8 37c0 .8-.4 1.5-1 1.5-.5 0-.7.6-.4 1.3.3.9-.6 1.3-3.1 1.3-1.9 0-3.5-.4-3.5-.8s.8-.8 1.9-.8c1 0 2.1-.9 2.4-2 .6-2.3 3.7-2.7 3.7-.5zM64 53c0 .5.5 1 1 1 .6 0 1-.5 1-1 0-.6-.4-1-1-1-.5 0-1 .4-1 1zM67 53c0 .5.5 1 1 1 .6 0 1-.5 1-1 0-.6-.4-1-1-1-.5 0-1 .4-1 1zM194 57.9c-.7 1.5-.7 2.1 0 2.1 1.2 0 2.5-2.8 1.7-3.6-.3-.3-1 .4-1.7 1.5zM125 63.9c0 .5-1.2 1.6-2.7 2.3-1.5.7-2.9 2.2-3.1 3.2-.2 1 0 1.6.5 1.3.5-.3 2.2.5 3.8 1.9 2.4 2.1 2.7 2.7 1.5 3.4-1 .7-1.6.5-1.8-.4-.4-1.9-7.5-4-11.4-3.2-1.8.3-5.6 2.1-8.3 3.9-2.8 1.7-6.1 3.7-7.5 4.4-1.8.9-2 1.2-.7 1.2 2 .1 2.1.5.6 3.3-.8 1.6-.8 2.2.2 2.9 1.1.6 1 1.2-.4 2.7-.9 1-1.7 2.6-1.7 3.5 0 .9-.8 2.1-1.7 2.6-1.7 1-1.7 1 .1 1.1 1.6 0 1.8.5 1.3 3.4s-.2 3.5 1.5 4c1.8.4 1.9.8.9 2-.7.8-1 2-.6 2.6.3.5-.4 1.4-1.6 1.9-2.3.8-2.3.8.4 1.5 2 .5 2.7 1.3 2.7 3.1v2.5l5.6-3c3.1-1.6 6.1-2.7 6.6-2.4 1.6 1 3.6-2.8 3.6-7.4.1-4.2 0-4.4-2.3-3.9-1.7.3-2.5 0-2.5-.9 0-.8-.6-1.1-1.5-.8-.8.3-1.3 1.5-1.2 2.6.1 1.2-.4 2.3-1.2 2.6-1.3.4-1.1-.9.6-5.6.3-.6 0-1.2-.6-1.2s-1.1.4-1.1 1c0 .5-.5 1-1.1 1-.6 0-.9-.6-.6-1.4.3-.7.1-1.8-.5-2.4-.6-.6-.6-1.2.3-1.8 1.7-1 10.8-1.1 11.2-.1.1.5 1.4.4 2.7-.1 1.4-.5 2.9-1 3.3-1 1.5-.2 3.8-3.2 3.2-4.2-.6-.9.8-1.4 2.8-1.1.4 0 .7-.4.7-1s.6-.9 1.4-.6c1.9.8 3.2-1.1 3.4-5.1.2-2.6-.1-3.2-1.8-3.2-2.8 0-2.5-1.9.4-3 1.3-.5 2.7-1.3 3.1-1.9.3-.7 0-.8-.9-.5-2.2.9-2.1-2.2.2-3.5 1-.7 1.3-1.4.7-1.8-.5-.5-1-1.7-1-2.8 0-1.4-.8-2.1-2.7-2.3-1.6-.2-2.8.1-2.8.7zm3 17.1c0 .5-.2 1-.4 1-.3 0-.8-.5-1.1-1-.3-.6-.1-1 .4-1 .6 0 1.1.4 1.1 1zm-17 24.2c0 1.6-.3 1.9-1.1 1.1-.6-.6-.8-1.6-.5-2.2 1.1-1.7 1.6-1.3 1.6 1.1zm-2.3 2.6c.8.5.9 1.3.3 2.2-.7 1.1-1 1.2-1 .2 0-.7-.4-1-1-.7-.5.3-1-.1-1-.9 0-1.7.8-2 2.7-.8z"/><path d="M55 66.4c0 .2.7.7 1.6 1 .8.3 1.2.2.9-.4-.6-1-2.5-1.4-2.5-.6zM179.2 82.2c-3.1 3.1.9 9.8 8.3 13.7 7.1 3.8 10.1 2.3 8.4-4.2-1-3.6-4.7-6.6-8-6.7-1.8 0-2.8-.7-3.2-2-.6-2.2-3.6-2.7-5.5-.8zM32.8 83.3c-2.1.6-3.8 1.4-3.8 1.9 0 .4-.6.8-1.4.8-.9 0-1.4.9-1.3 2 .1 1.1.8 2 1.7 2 1.9-.1 5.9-3 4.1-3-1.1 0-1.1-.3-.1-1.5.7-.8 2.3-1.5 3.6-1.5 1.2 0 2.6-.5 2.9-1 .7-1.2-.7-1.1-5.7.3zM53.7 85.6c-1.6.9-2.6 1.8-2.3 2.1.3.3 2-.4 3.8-1.6 3.8-2.4 2.7-2.8-1.5-.5zM66.4 88.4c-1 .8-1.6 1.7-1.2 2.1.8.8 4.8-1.3 4.8-2.5 0-1.4-1.3-1.2-3.6.4zM52.5 97c-.3.5-.1 1 .4 1 .6 0 1.1-.5 1.1-1 0-.6-.2-1-.4-1-.3 0-.8.4-1.1 1zM78.3 96.7c-1.4.5-1.8 2.3-.5 2.3.5 0 1.7-.7 2.8-1.5 1.4-1.1 1.5-1.4.4-1.4-.8 0-2.1.3-2.7.6zM73.5 98c-.3.5-.2 1 .4 1 .5 0 1.3-.5 1.6-1 .3-.6.2-1-.4-1-.5 0-1.3.4-1.6 1zM66.1 101.6c-1.2 2-2 3.8-1.7 4.1.4.5 5.6-6 5.6-7 0-1.8-2-.3-3.9 2.9zM48.5 100c-.3.5-.2 1 .4 1 .5 0 1.3-.5 1.6-1 .3-.6.2-1-.4-1-.5 0-1.3.4-1.6 1zM58.3 103.3c-1.1 1.2-2.8 3.5-3.7 5.2l-1.7 3 .6-3 .6-3-2.5 2.5c-1.4 1.4-2.8 3.8-3.2 5.5l-.7 3 2.4-2.1c1.3-1.2 3.2-2.4 4.2-2.7.9-.4 2-1.5 2.4-2.4.4-1 1.6-3 2.7-4.5 2.5-3.5 1.7-4.6-1.1-1.5zM114.2 106.3c-.5 2.9-1.1 5.8-1.3 6.6-.7 2.6 2.9 2.4 4.6-.2 2.6-4.1 2.6-6.7.1-9.2l-2.4-2.4-1 5.2zm3.2-.8c.3.8.1 1.5-.4 1.5-.6 0-1-.7-1-1.5s.2-1.5.4-1.5.6.7 1 1.5zM0 108c0 4.8.1 5 2 3.8 2.2-1.4 2.6-2.8.9-2.8-.6 0-.8-.7-.5-1.5.3-.8.9-2.2 1.2-3 .4-1.1 0-1.5-1.5-1.5-1.9 0-2.1.6-2.1 5zM70 104.5c-1.6 1.9-.1 1.9 2.4 0 1.6-1.2 1.7-1.5.4-1.5-.8 0-2.1.7-2.8 1.5zM59.5 110c-1.8 1.9-1.7 2 .3 2 1.2 0 2.6-.9 3.2-2 .8-1.6.8-2-.3-2-.8 0-2.2.9-3.2 2zM89.6 110.5c-.3.8-.2 1.5.3 1.5s1.4-.7 2.1-1.5c1-1.2 1-1.5-.3-1.5-.8 0-1.7.7-2.1 1.5zM70 115.5c-1.6 1.9 0 1.9 2.6 0 1.6-1.2 1.6-1.4.3-1.5-.9 0-2.2.7-2.9 1.5zM53 118.8c-3.4 3.1-3.9 4-2.6 4.5 1.2.5 1.4 1.5 1 3.9l-.5 3.3 1.6-2.8c.9-1.6 1.4-3.1 1.2-3.3-.3-.3.8-1.9 2.4-3.7 2.8-3 3.8-5.7 2.1-5.7-.5 0-2.8 1.7-5.2 3.8zM44.5 120c-.3.5-.1 1 .4 1 .6 0 1.1-.5 1.1-1 0-.6-.2-1-.4-1-.3 0-.8.4-1.1 1zM65.7 121.7c-.4.3-.7 1.1-.7 1.7 0 .6.5.5 1.2-.2.6-.6.9-1.4.7-1.7-.3-.3-.9-.2-1.2.2zM144 122.1c0 .5.5.7 1 .4.6-.3 1-.8 1-1.1 0-.2-.4-.4-1-.4-.5 0-1 .5-1 1.1zM138.6 123.5c-.3.8-.2 1.5.3 1.5s1.4-.7 2.1-1.5c1-1.2 1-1.5-.3-1.5-.8 0-1.7.7-2.1 1.5zM134 126.1c0 1.1.5 1.7 1 1.4.6-.3 1-1.3 1-2.1s-.4-1.4-1-1.4c-.5 0-1 .9-1 2.1zM126.7 127.2c-1.3 4 2.3 6.5 4.3 2.9 1.4-2.6 1.3-3.1-.5-2.5-.8.4-1.5.1-1.5-.5 0-1.5-1.7-1.4-2.3.1zM.7 129.7c-.4.3-.7 1.8-.7 3.1 0 3.1 1.2 2.2 1.5-1.3.3-2.7.2-2.9-.8-1.8zM47.6 134.3c-2.4 3.1-2.7 4-1.6 4.7 1.2.7 1.2 1.2-.1 2.7-.9 1-2 2.5-2.4 3.3-.8 1.3-.7 1.3.9.1 2.8-2.3 6.8-9.9 6.4-12.3-.3-2.1-.5-2-3.2 1.5zM120.9 133.1c-2 1.6-2.2 2-.9 2.9 1.3.8 1.2 1-.5 1.1-1.1 0-1.4.3-.7.6.6.2 1.2 1.3 1.2 2.4 0 1.2.5 1.6 1.5 1.3.8-.4 1.2-1 .9-1.5-.3-.5-.1-.9.4-.9.6 0 1.4-1.2 2-2.8 1.4-4-.6-5.6-3.9-3.1zM140.5 133l-2 .9h2c1.1 0 2.7-.4 3.5-.9 1.3-.9 1.3-1 0-.9-.8 0-2.4.4-3.5.9zM92.7 136.7c-.4.3-.7 1.1-.7 1.7 0 .6.5.5 1.2-.2.6-.6.9-1.4.7-1.7-.3-.3-.9-.2-1.2.2zM212.5 137c.3.5.8 1 1.1 1 .2 0 .4-.5.4-1 0-.6-.5-1-1.1-1-.5 0-.7.4-.4 1zM97.7 137.7c-.4.3-.7 1.1-.7 1.7 0 .6.5.5 1.2-.2.6-.6.9-1.4.7-1.7-.3-.3-.9-.2-1.2.2zM201.5 143.9c-.3.5-.1 1.2.5 1.6.5.3 1-.1 1-.9 0-1.8-.6-2.1-1.5-.7zM113.5 145.1c-1.1 1.7.1 2.1 1.5.4.8-.9.8-1.5.2-1.5-.6 0-1.4.5-1.7 1.1zM124.5 145c-.3.6.1.7.9.4 1.8-.7 2.1-1.4.7-1.4-.6 0-1.3.4-1.6 1zM208.4 150.6c.3.9.6 2.1.6 2.7 0 .7.4 1.8.9 2.6.8 1.2 1.1 1.2 2.3 0 1.7-1.6 1.3-3.8-1-5.7-2.2-1.7-3.5-1.5-2.8.4zM225 159.5c0 1.4.8 2.9 2.1 3.5 2.9 1.6 3.4.6 1.3-2.9-2.2-3.7-3.4-4-3.4-.6zM236 180.8c0 1.2 1.9 2.6 2.6 1.9.2-.2-.2-1-1.1-1.7-.9-.8-1.5-.8-1.5-.2zM238.5 193c.3.5.8 1 1.1 1 .2 0 .4-.5.4-1 0-.6-.5-1-1.1-1-.5 0-.7.4-.4 1zM243.4 258.1c-.9 1.5.1 2.1 2.6 1.7 2.1-.3 2.1-.3.1-1.5-1.4-.9-2.2-.9-2.7-.2z"/></svg>